<?xml version="1.0" standalone="no"?>
<!DOCTYPE svg PUBLIC "-//W3C//DTD SVG 20010904//EN"
 "http://www.w3.org/TR/2001/REC-SVG-20010904/DTD/svg10.dtd">
<svg version="1.0" xmlns="http://www.w3.org/2000/svg"
 width="395.000000pt" height="365.000000pt" viewBox="0 0 395.000000 365.000000"
 preserveAspectRatio="xMidYMid meet">

<g transform="translate(0.000000,365.000000) scale(0.100000,-0.100000)"
fill="#000000" stroke="none">
<path d="M2095 3309 c-180 -31 -221 -41 -285 -74 -25 -12 -70 -28 -100 -34
-130 -28 -401 -186 -571 -335 -90 -78 -209 -212 -278 -315 -65 -96 -147 -258
-184 -366 -62 -179 -72 -246 -72 -475 0 -190 3 -213 28 -313 36 -144 74 -238
154 -377 103 -181 179 -268 333 -384 194 -146 422 -221 745 -245 61 -4 118 -4
127 1 9 4 36 8 59 8 63 0 275 46 375 81 264 93 501 259 644 451 117 158 228
411 270 619 37 180 44 528 14 708 -79 482 -213 719 -509 894 -38 23 -88 55
-110 72 -55 42 -152 83 -232 100 -98 21 -226 16 -408 -16z m225 -210 c87 -24
235 -91 314 -144 74 -49 185 -160 256 -256 65 -88 105 -187 140 -344 97 -445
50 -838 -134 -1113 -160 -240 -503 -453 -793 -492 -187 -25 -466 7 -645 74
-117 44 -186 87 -280 175 -313 293 -404 819 -212 1221 173 361 514 662 924
815 41 15 86 36 100 45 61 42 213 51 330 19z"/>
<path d="M2600 2713 c-66 -68 -181 -211 -209 -261 -8 -14 -13 -13 -48 10 -21
14 -78 57 -128 96 -92 73 -130 87 -154 58 -21 -25 20 -84 136 -198 l108 -106
-47 -98 c-53 -108 -57 -131 -29 -165 16 -20 23 -22 38 -13 10 6 20 20 22 30 4
23 93 173 103 174 4 0 27 -13 51 -30 68 -45 215 -113 232 -106 8 3 15 14 15
25 0 24 -87 129 -164 196 l-56 50 103 167 c56 92 110 177 120 188 22 26 22 60
0 60 -10 0 -52 -35 -93 -77z"/>
<path d="M1771 2492 c-25 -26 -86 -106 -134 -178 l-89 -131 -79 53 c-44 28
-96 60 -115 69 -46 22 -84 13 -84 -19 0 -32 25 -61 124 -145 l84 -72 -75 -147
c-59 -115 -75 -154 -70 -174 10 -40 34 -42 53 -5 10 18 50 80 91 140 l75 107
50 -42 c99 -85 182 -147 190 -142 18 11 6 75 -24 135 -18 34 -57 89 -85 120
-29 31 -53 59 -53 61 0 3 47 95 105 206 58 110 105 203 105 206 0 18 -29 0
-69 -42z"/>
<path d="M2480 1690 c-8 -5 -25 -10 -37 -10 -12 0 -38 -14 -57 -30 -43 -39
-265 -145 -521 -250 -288 -119 -300 -127 -257 -180 l18 -22 94 26 c52 14 140
41 196 60 l101 34 18 -55 c43 -124 163 -264 270 -314 129 -59 274 -9 352 122
98 164 109 338 31 494 -48 97 -154 160 -208 125z m31 -257 c17 -51 15 -123 -4
-160 -9 -16 -32 -44 -52 -62 -41 -36 -45 -35 -166 10 -73 28 -179 93 -186 114
-4 12 330 134 369 135 22 0 29 -6 39 -37z"/>
</g>
</svg>
